<svg width="3324" height="428" viewBox="0 0 3324 428" fill="none" xmlns="http://www.w3.org/2000/svg">
<rect y="100" width="200" height="300" rx="24" transform="rotate(-30 0 100)" fill="#0077CC"/>
<rect x="123" y="38" width="200" height="300" rx="24" fill="#008FF5"/>
<rect x="260" y="68" width="200" height="300" rx="24" transform="rotate(30 260 68)" fill="#0095FF"/>
<path d="M635.318 301.729C619.016 301.729 604.031 297.942 590.364 290.367C576.861 282.792 566.076 272.254 558.007 258.751C550.103 245.084 546.151 229.77 546.151 212.809C546.151 195.848 550.103 180.617 558.007 167.114C566.076 153.611 576.861 143.073 590.364 135.498C604.031 127.923 619.016 124.136 635.318 124.136C651.62 124.136 666.522 127.923 680.025 135.498C693.692 143.073 704.396 153.611 712.135 167.114C720.039 180.617 723.991 195.848 723.991 212.809C723.991 229.77 720.039 245.084 712.135 258.751C704.231 272.254 693.528 282.792 680.025 290.367C666.522 297.942 651.62 301.729 635.318 301.729ZM635.318 263.197C649.15 263.197 660.183 258.586 668.416 249.365C676.814 240.144 681.013 227.958 681.013 212.809C681.013 197.495 676.814 185.31 668.416 176.253C660.183 167.032 649.15 162.421 635.318 162.421C621.321 162.421 610.124 166.949 601.726 176.006C593.493 185.063 589.376 197.33 589.376 212.809C589.376 228.123 593.493 240.391 601.726 249.612C610.124 258.669 621.321 263.197 635.318 263.197ZM831.469 160.692C847.606 160.692 860.45 165.961 870.001 176.5C879.716 186.874 884.574 201.2 884.574 219.478V300H842.584V225.159C842.584 215.938 840.196 208.775 835.421 203.67C830.645 198.565 824.223 196.013 816.155 196.013C808.086 196.013 801.664 198.565 796.889 203.67C792.113 208.775 789.726 215.938 789.726 225.159V300H747.489V162.174H789.726V180.452C794.007 174.359 799.77 169.584 807.016 166.126C814.261 162.503 822.412 160.692 831.469 160.692ZM956.161 117.22V300H913.924V117.22H956.161ZM1008.01 147.848C1000.6 147.848 994.509 145.707 989.734 141.426C985.123 136.98 982.818 131.546 982.818 125.124C982.818 118.537 985.123 113.103 989.734 108.822C994.509 104.376 1000.6 102.153 1008.01 102.153C1015.26 102.153 1021.19 104.376 1025.8 108.822C1030.57 113.103 1032.96 118.537 1032.96 125.124C1032.96 131.546 1030.57 136.98 1025.8 141.426C1021.19 145.707 1015.26 147.848 1008.01 147.848ZM1029.01 162.174V300H986.77V162.174H1029.01ZM1143.6 160.692C1159.73 160.692 1172.58 165.961 1182.13 176.5C1191.84 186.874 1196.7 201.2 1196.7 219.478V300H1154.71V225.159C1154.71 215.938 1152.32 208.775 1147.55 203.67C1142.77 198.565 1136.35 196.013 1128.28 196.013C1120.21 196.013 1113.79 198.565 1109.02 203.67C1104.24 208.775 1101.85 215.938 1101.85 225.159V300H1059.62V162.174H1101.85V180.452C1106.13 174.359 1111.9 169.584 1119.14 166.126C1126.39 162.503 1134.54 160.692 1143.6 160.692ZM1355.97 228.864C1355.97 232.816 1355.73 236.933 1355.23 241.214H1259.64C1260.3 249.777 1263.02 256.363 1267.79 260.974C1272.73 265.42 1278.74 267.643 1285.83 267.643C1296.36 267.643 1303.69 263.197 1307.81 254.305H1352.76C1350.46 263.362 1346.26 271.513 1340.17 278.758C1334.24 286.003 1326.74 291.684 1317.69 295.801C1308.63 299.918 1298.5 301.976 1287.31 301.976C1273.8 301.976 1261.78 299.094 1251.25 293.331C1240.71 287.568 1232.47 279.334 1226.55 268.631C1220.62 257.928 1217.65 245.413 1217.65 231.087C1217.65 216.761 1220.53 204.246 1226.3 193.543C1232.23 182.84 1240.46 174.606 1251 168.843C1261.54 163.08 1273.64 160.198 1287.31 160.198C1300.65 160.198 1312.5 162.997 1322.88 168.596C1333.25 174.195 1341.32 182.181 1347.08 192.555C1353.01 202.929 1355.97 215.032 1355.97 228.864ZM1312.75 217.749C1312.75 210.504 1310.28 204.74 1305.34 200.459C1300.4 196.178 1294.22 194.037 1286.81 194.037C1279.73 194.037 1273.72 196.095 1268.78 200.212C1264.01 204.329 1261.04 210.174 1259.89 217.749H1312.75ZM1562.74 182.428C1562.74 192.473 1560.44 201.694 1555.83 210.092C1551.22 218.325 1544.14 224.994 1534.59 230.099C1525.03 235.204 1513.18 237.756 1499.02 237.756H1472.84V300H1430.6V126.606H1499.02C1512.85 126.606 1524.54 128.994 1534.09 133.769C1543.64 138.544 1550.8 145.131 1555.58 153.529C1560.36 161.927 1562.74 171.56 1562.74 182.428ZM1495.81 204.164C1503.87 204.164 1509.89 202.27 1513.84 198.483C1517.79 194.696 1519.77 189.344 1519.77 182.428C1519.77 175.512 1517.79 170.16 1513.84 166.373C1509.89 162.586 1503.87 160.692 1495.81 160.692H1472.84V204.164H1495.81ZM1626.97 117.22V300H1584.73V117.22H1626.97ZM1649.18 230.84C1649.18 216.679 1651.81 204.246 1657.08 193.543C1662.52 182.84 1669.85 174.606 1679.07 168.843C1688.29 163.08 1698.58 160.198 1709.94 160.198C1719.66 160.198 1728.14 162.174 1735.38 166.126C1742.79 170.078 1748.47 175.265 1752.43 181.687V162.174H1794.66V300H1752.43V280.487C1748.31 286.909 1742.55 292.096 1735.14 296.048C1727.89 300 1719.41 301.976 1709.69 301.976C1698.5 301.976 1688.29 299.094 1679.07 293.331C1669.85 287.403 1662.52 279.087 1657.08 268.384C1651.81 257.516 1649.18 245.001 1649.18 230.84ZM1752.43 231.087C1752.43 220.548 1749.46 212.233 1743.53 206.14C1737.77 200.047 1730.69 197.001 1722.29 197.001C1713.89 197.001 1706.73 200.047 1700.8 206.14C1695.04 212.068 1692.16 220.301 1692.16 230.84C1692.16 241.379 1695.04 249.777 1700.8 256.034C1706.73 262.127 1713.89 265.173 1722.29 265.173C1730.69 265.173 1737.77 262.127 1743.53 256.034C1749.46 249.941 1752.43 241.626 1752.43 231.087ZM1909.2 160.692C1925.34 160.692 1938.18 165.961 1947.73 176.5C1957.45 186.874 1962.3 201.2 1962.3 219.478V300H1920.31V225.159C1920.31 215.938 1917.93 208.775 1913.15 203.67C1908.38 198.565 1901.95 196.013 1893.89 196.013C1885.82 196.013 1879.39 198.565 1874.62 203.67C1869.84 208.775 1867.46 215.938 1867.46 225.159V300H1825.22V162.174H1867.46V180.452C1871.74 174.359 1877.5 169.584 1884.75 166.126C1891.99 162.503 1900.14 160.692 1909.2 160.692ZM2075.63 160.692C2091.77 160.692 2104.62 165.961 2114.17 176.5C2123.88 186.874 2128.74 201.2 2128.74 219.478V300H2086.75V225.159C2086.75 215.938 2084.36 208.775 2079.59 203.67C2074.81 198.565 2068.39 196.013 2060.32 196.013C2052.25 196.013 2045.83 198.565 2041.05 203.67C2036.28 208.775 2033.89 215.938 2033.89 225.159V300H1991.65V162.174H2033.89V180.452C2038.17 174.359 2043.94 169.584 2051.18 166.126C2058.43 162.503 2066.58 160.692 2075.63 160.692ZM2179.33 147.848C2171.92 147.848 2165.83 145.707 2161.05 141.426C2156.44 136.98 2154.14 131.546 2154.14 125.124C2154.14 118.537 2156.44 113.103 2161.05 108.822C2165.83 104.376 2171.92 102.153 2179.33 102.153C2186.58 102.153 2192.51 104.376 2197.12 108.822C2201.89 113.103 2204.28 118.537 2204.28 125.124C2204.28 131.546 2201.89 136.98 2197.12 141.426C2192.51 145.707 2186.58 147.848 2179.33 147.848ZM2200.33 162.174V300H2158.09V162.174H2200.33ZM2314.92 160.692C2331.05 160.692 2343.9 165.961 2353.45 176.5C2363.16 186.874 2368.02 201.2 2368.02 219.478V300H2326.03V225.159C2326.03 215.938 2323.64 208.775 2318.87 203.67C2314.09 198.565 2307.67 196.013 2299.6 196.013C2291.53 196.013 2285.11 198.565 2280.34 203.67C2275.56 208.775 2273.17 215.938 2273.17 225.159V300H2230.94V162.174H2273.17V180.452C2277.45 174.359 2283.22 169.584 2290.46 166.126C2297.71 162.503 2305.86 160.692 2314.92 160.692ZM2449.74 160.198C2459.45 160.198 2467.93 162.174 2475.18 166.126C2482.59 170.078 2488.27 175.265 2492.22 181.687V162.174H2534.46V299.753C2534.46 312.432 2531.9 323.877 2526.8 334.086C2521.86 344.46 2514.2 352.693 2503.83 358.786C2493.62 364.879 2480.86 367.925 2465.54 367.925C2445.12 367.925 2428.58 363.067 2415.9 353.352C2403.22 343.801 2395.97 330.793 2394.16 314.326H2435.9C2437.22 319.595 2440.35 323.712 2445.29 326.676C2450.23 329.805 2456.32 331.369 2463.57 331.369C2472.29 331.369 2479.21 328.817 2484.32 323.712C2489.58 318.772 2492.22 310.786 2492.22 299.753V280.24C2488.1 286.662 2482.42 291.931 2475.18 296.048C2467.93 300 2459.45 301.976 2449.74 301.976C2438.37 301.976 2428.08 299.094 2418.86 293.331C2409.64 287.403 2402.31 279.087 2396.88 268.384C2391.61 257.516 2388.97 245.001 2388.97 230.84C2388.97 216.679 2391.61 204.246 2396.88 193.543C2402.31 182.84 2409.64 174.606 2418.86 168.843C2428.08 163.08 2438.37 160.198 2449.74 160.198ZM2492.22 231.087C2492.22 220.548 2489.26 212.233 2483.33 206.14C2477.56 200.047 2470.48 197.001 2462.09 197.001C2453.69 197.001 2446.52 200.047 2440.6 206.14C2434.83 212.068 2431.95 220.301 2431.95 230.84C2431.95 241.379 2434.83 249.777 2440.6 256.034C2446.52 262.127 2453.69 265.173 2462.09 265.173C2470.48 265.173 2477.56 262.127 2483.33 256.034C2489.26 249.941 2492.22 241.626 2492.22 231.087ZM2749.5 182.428C2749.5 192.473 2747.2 201.694 2742.58 210.092C2737.97 218.325 2730.89 224.994 2721.34 230.099C2711.79 235.204 2699.94 237.756 2685.77 237.756H2659.59V300H2617.36V126.606H2685.77C2699.61 126.606 2711.3 128.994 2720.85 133.769C2730.4 138.544 2737.56 145.131 2742.34 153.529C2747.11 161.927 2749.5 171.56 2749.5 182.428ZM2682.56 204.164C2690.63 204.164 2696.64 202.27 2700.59 198.483C2704.55 194.696 2706.52 189.344 2706.52 182.428C2706.52 175.512 2704.55 170.16 2700.59 166.373C2696.64 162.586 2690.63 160.692 2682.56 160.692H2659.59V204.164H2682.56ZM2834.23 301.976C2820.73 301.976 2808.54 299.094 2797.67 293.331C2786.97 287.568 2778.49 279.334 2772.23 268.631C2766.14 257.928 2763.09 245.413 2763.09 231.087C2763.09 216.926 2766.22 204.493 2772.48 193.79C2778.74 182.922 2787.3 174.606 2798.17 168.843C2809.03 163.08 2821.22 160.198 2834.72 160.198C2848.22 160.198 2860.41 163.08 2871.28 168.843C2882.15 174.606 2890.71 182.922 2896.97 193.79C2903.22 204.493 2906.35 216.926 2906.35 231.087C2906.35 245.248 2903.14 257.763 2896.72 268.631C2890.46 279.334 2881.82 287.568 2870.78 293.331C2859.92 299.094 2847.73 301.976 2834.23 301.976ZM2834.23 265.42C2842.3 265.42 2849.13 262.456 2854.73 256.528C2860.49 250.6 2863.37 242.12 2863.37 231.087C2863.37 220.054 2860.57 211.574 2854.98 205.646C2849.54 199.718 2842.79 196.754 2834.72 196.754C2826.49 196.754 2819.65 199.718 2814.22 205.646C2808.79 211.409 2806.07 219.89 2806.07 231.087C2806.07 242.12 2808.7 250.6 2813.97 256.528C2819.41 262.456 2826.16 265.42 2834.23 265.42ZM3012.99 300L2971 242.202V300H2928.76V117.22H2971V218.243L3012.74 162.174H3064.86L3007.55 231.334L3065.35 300H3012.99ZM3211.37 228.864C3211.37 232.816 3211.12 236.933 3210.63 241.214H3115.04C3115.7 249.777 3118.41 256.363 3123.19 260.974C3128.13 265.42 3134.14 267.643 3141.22 267.643C3151.76 267.643 3159.09 263.197 3163.2 254.305H3208.16C3205.85 263.362 3201.65 271.513 3195.56 278.758C3189.63 286.003 3182.14 291.684 3173.08 295.801C3164.03 299.918 3153.9 301.976 3142.7 301.976C3129.2 301.976 3117.18 299.094 3106.64 293.331C3096.1 287.568 3087.87 279.334 3081.94 268.631C3076.01 257.928 3073.05 245.413 3073.05 231.087C3073.05 216.761 3075.93 204.246 3081.69 193.543C3087.62 182.84 3095.85 174.606 3106.39 168.843C3116.93 163.08 3129.03 160.198 3142.7 160.198C3156.04 160.198 3167.9 162.997 3178.27 168.596C3188.64 174.195 3196.71 182.181 3202.48 192.555C3208.4 202.929 3211.37 215.032 3211.37 228.864ZM3168.14 217.749C3168.14 210.504 3165.67 204.74 3160.73 200.459C3155.79 196.178 3149.62 194.037 3142.21 194.037C3135.13 194.037 3129.12 196.095 3124.18 200.212C3119.4 204.329 3116.44 210.174 3115.28 217.749H3168.14ZM3275.89 185.145C3280.83 177.57 3287 171.642 3294.41 167.361C3301.82 162.915 3310.06 160.692 3319.11 160.692V205.399H3307.5C3296.96 205.399 3289.06 207.704 3283.79 212.315C3278.52 216.761 3275.89 224.665 3275.89 236.027V300H3233.65V162.174H3275.89V185.145Z" fill="#0095FF"/>
</svg>
