<svg width="299" height="40" viewBox="0 0 299 40" fill="none" xmlns="http://www.w3.org/2000/svg">
<path d="M12.0565 3.96827L1.64407 10C0.736077 10.526 0.424974 11.6909 0.949206 12.602L10.9159 29.9225C11.4401 30.8335 12.6012 31.1456 13.5092 30.6197L23.9216 24.5879C24.8296 24.0619 25.1407 22.897 24.6165 21.986L14.6498 4.66546C14.1256 3.75442 12.9645 3.44228 12.0565 3.96827Z" fill="#EBEBEB"/>
<path d="M23.6512 6.03174H11.6279C10.5794 6.03174 9.72949 6.88453 9.72949 7.9365V27.9365C9.72949 28.9885 10.5794 29.8413 11.6279 29.8413H23.6512C24.6996 29.8413 25.5496 28.9885 25.5496 27.9365V7.9365C25.5496 6.88453 24.6996 6.03174 23.6512 6.03174Z" fill="#F5F5F5"/>
<path d="M32.6225 15.3968L22.21 9.3651C21.302 8.83912 20.1409 9.15126 19.6167 10.0623L9.65004 27.3828C9.12581 28.2938 9.43692 29.4588 10.3449 29.9848L20.7574 36.0165C21.6654 36.5425 22.8264 36.2303 23.3507 35.3193L33.3173 17.9988C33.8416 17.0878 33.5305 15.9228 32.6225 15.3968Z" fill="white"/>
<path d="M46.6041 29.5518C45.2398 29.5518 44.0172 29.3296 42.9364 28.8851C41.8555 28.4407 40.9873 27.7829 40.3317 26.9118C39.6939 26.0407 39.3572 24.9918 39.3218 23.7651H44.1589C44.2298 24.4585 44.469 24.9918 44.8765 25.3651C45.2841 25.7207 45.8156 25.8985 46.4712 25.8985C47.1445 25.8985 47.6761 25.7473 48.0659 25.4451C48.4557 25.1251 48.6506 24.6896 48.6506 24.1385C48.6506 23.6762 48.4911 23.294 48.1722 22.9918C47.871 22.6896 47.49 22.4407 47.0293 22.2451C46.5864 22.0496 45.9485 21.8273 45.1157 21.5785C43.9109 21.2051 42.9275 20.8318 42.1656 20.4585C41.4037 20.0851 40.7481 19.534 40.1988 18.8051C39.6496 18.0762 39.3749 17.1251 39.3749 15.9518C39.3749 14.2096 40.0039 12.8496 41.262 11.8718C42.52 10.8762 44.1589 10.3785 46.1788 10.3785C48.2342 10.3785 49.8909 10.8762 51.1489 11.8718C52.4069 12.8496 53.0802 14.2185 53.1688 15.9785H48.2519C48.2165 15.374 47.995 14.9029 47.5875 14.5651C47.1799 14.2096 46.6572 14.0318 46.0194 14.0318C45.4701 14.0318 45.0271 14.1829 44.6905 14.4851C44.3538 14.7696 44.1855 15.1873 44.1855 15.7385C44.1855 16.3429 44.469 16.814 45.036 17.1518C45.603 17.4896 46.4889 17.854 47.6938 18.2451C48.8986 18.654 49.8732 19.0451 50.6173 19.4185C51.3792 19.7918 52.0348 20.334 52.5841 21.0451C53.1334 21.7562 53.408 22.6718 53.408 23.7918C53.408 24.8585 53.1334 25.8273 52.5841 26.6985C52.0525 27.5696 51.2729 28.2629 50.2452 28.7785C49.2176 29.294 48.0039 29.5518 46.6041 29.5518ZM69.2546 14.4851V29.3651H64.7098V27.3385C64.2491 27.9962 63.6201 28.5296 62.8228 28.9385C62.0432 29.3296 61.175 29.5251 60.2182 29.5251C59.0842 29.5251 58.0831 29.2762 57.2149 28.7785C56.3467 28.2629 55.6734 27.5251 55.195 26.5651C54.7166 25.6051 54.4774 24.4762 54.4774 23.1785V14.4851H58.9956V22.5651C58.9956 23.5607 59.2525 24.334 59.7663 24.8851C60.2802 25.4362 60.9712 25.7118 61.8394 25.7118C62.7253 25.7118 63.4252 25.4362 63.9391 24.8851C64.4529 24.334 64.7098 23.5607 64.7098 22.5651V14.4851H69.2546ZM75.4692 16.5918C75.9122 15.8985 76.5235 15.3385 77.3031 14.9118C78.0827 14.4851 78.9952 14.2718 80.041 14.2718C81.2631 14.2718 82.3705 14.5829 83.3632 15.2051C84.3551 15.8273 85.1351 16.7162 85.7014 17.8718C86.2868 19.0274 86.5787 20.3696 86.5787 21.8985C86.5787 23.4274 86.2868 24.7785 85.7014 25.9518C85.1351 27.1074 84.3551 28.0051 83.3632 28.6451C82.3705 29.2674 81.2631 29.5785 80.041 29.5785C79.0129 29.5785 78.1004 29.3651 77.3031 28.9385C76.5235 28.5118 75.9122 27.9607 75.4692 27.2851V36.4585H70.9244V14.4851H75.4692V16.5918ZM81.9544 21.8985C81.9544 20.7607 81.6357 19.8718 80.9973 19.2318C80.3772 18.574 79.6067 18.2451 78.6851 18.2451C77.7815 18.2451 77.0107 18.574 76.3729 19.2318C75.7527 19.8896 75.4426 20.7874 75.4426 21.9251C75.4426 23.0629 75.7527 23.9607 76.3729 24.6185C77.0107 25.2762 77.7815 25.6051 78.6851 25.6051C79.5885 25.6051 80.3598 25.2762 80.9973 24.6185C81.6357 23.9429 81.9544 23.0362 81.9544 21.8985ZM101.348 21.6851C101.348 22.1118 101.321 22.5562 101.268 23.0185H90.983C91.0542 23.9429 91.346 24.654 91.8602 25.1518C92.3918 25.6318 93.038 25.8718 93.8005 25.8718C94.934 25.8718 95.7227 25.3918 96.1656 24.4318H101.003C100.755 25.4096 100.303 26.2896 99.6476 27.0718C99.0093 27.854 98.2033 28.4674 97.2287 28.9118C96.2542 29.3562 95.1642 29.5785 93.9595 29.5785C92.5064 29.5785 91.2132 29.2674 90.0796 28.6451C88.9453 28.0229 88.0594 27.134 87.4219 25.9785C86.7835 24.8229 86.4647 23.4718 86.4647 21.9251C86.4647 20.3785 86.7748 19.0274 87.395 17.8718C88.0325 16.7162 88.9184 15.8273 90.0527 15.2051C91.187 14.5829 92.489 14.2718 93.9595 14.2718C95.3952 14.2718 96.6703 14.574 97.7872 15.1785C98.9033 15.7829 99.771 16.6451 100.391 17.7651C101.03 18.8851 101.348 20.1918 101.348 21.6851ZM96.6972 20.4851C96.6972 19.7029 96.4314 19.0807 95.8999 18.6185C95.3683 18.1562 94.7039 17.9251 93.9065 17.9251C93.1448 17.9251 92.4977 18.1473 91.9662 18.5918C91.4528 19.0362 91.1333 19.6673 91.0099 20.4851H96.6972ZM106.696 16.9651C107.228 16.1473 107.892 15.5073 108.69 15.0451C109.487 14.5651 110.373 14.3251 111.347 14.3251V19.1518H110.098C108.964 19.1518 108.114 19.4007 107.547 19.8985C106.979 20.3785 106.696 21.2318 106.696 22.4585V29.3651H102.151V14.4851H106.696V16.9651ZM130.181 16.6718C130.181 17.7562 129.934 18.7518 129.437 19.6585C128.941 20.5473 128.179 21.2673 127.152 21.8185C126.124 22.3696 124.848 22.6451 123.324 22.6451H120.507V29.3651H115.962V10.6451H123.324C124.813 10.6451 126.07 10.9029 127.099 11.4185C128.126 11.934 128.897 12.6451 129.411 13.5518C129.924 14.4585 130.181 15.4985 130.181 16.6718ZM122.979 19.0185C123.847 19.0185 124.494 18.814 124.919 18.4051C125.344 17.9962 125.557 17.4185 125.557 16.6718C125.557 15.9251 125.344 15.3473 124.919 14.9385C124.494 14.5296 123.847 14.3251 122.979 14.3251H120.507V19.0185H122.979ZM135.498 9.63179V29.3651H130.952V9.63179H135.498ZM136.293 21.8985C136.293 20.3696 136.577 19.0274 137.144 17.8718C137.728 16.7162 138.517 15.8273 139.509 15.2051C140.501 14.5829 141.608 14.2718 142.831 14.2718C143.877 14.2718 144.789 14.4851 145.569 14.9118C146.366 15.3385 146.977 15.8985 147.402 16.5918V14.4851H151.947V29.3651H147.402V27.2585C146.959 27.9518 146.339 28.5118 145.542 28.9385C144.763 29.3651 143.85 29.5785 142.804 29.5785C141.599 29.5785 140.501 29.2674 139.509 28.6451C138.517 28.0051 137.728 27.1074 137.144 25.9518C136.577 24.7785 136.293 23.4274 136.293 21.8985ZM147.402 21.9251C147.402 20.7874 147.083 19.8896 146.446 19.2318C145.826 18.574 145.063 18.2451 144.16 18.2451C143.257 18.2451 142.485 18.574 141.848 19.2318C141.228 19.8718 140.918 20.7607 140.918 21.8985C140.918 23.0362 141.228 23.9429 141.848 24.6185C142.485 25.2762 143.257 25.6051 144.16 25.6051C145.063 25.6051 145.826 25.2762 146.446 24.6185C147.083 23.9607 147.402 23.0629 147.402 21.9251ZM162.677 14.3251C164.414 14.3251 165.795 14.894 166.823 16.0318C167.869 17.1518 168.392 18.6985 168.392 20.6718V29.3651H163.873V21.2851C163.873 20.2896 163.616 19.5162 163.102 18.9651C162.589 18.414 161.897 18.1385 161.029 18.1385C160.161 18.1385 159.47 18.414 158.956 18.9651C158.442 19.5162 158.185 20.2896 158.185 21.2851V29.3651H153.641V14.4851H158.185V16.4585C158.646 15.8007 159.266 15.2851 160.046 14.9118C160.826 14.5207 161.703 14.3251 162.677 14.3251ZM178.991 14.3251C180.727 14.3251 182.11 14.894 183.137 16.0318C184.182 17.1518 184.705 18.6985 184.705 20.6718V29.3651H180.187V21.2851C180.187 20.2896 179.93 19.5162 179.417 18.9651C178.902 18.414 178.212 18.1385 177.343 18.1385C176.475 18.1385 175.784 18.414 175.27 18.9651C174.757 19.5162 174.5 20.2896 174.5 21.2851V29.3651H169.955V14.4851H174.5V16.4585C174.96 15.8007 175.58 15.2851 176.36 14.9118C177.139 14.5207 178.016 14.3251 178.991 14.3251ZM188.554 12.9385C187.757 12.9385 187.102 12.7073 186.588 12.2451C186.092 11.7651 185.843 11.1785 185.843 10.4851C185.843 9.77402 186.092 9.18735 186.588 8.72513C187.102 8.24513 187.757 8.00513 188.554 8.00513C189.334 8.00513 189.972 8.24513 190.468 8.72513C190.982 9.18735 191.239 9.77402 191.239 10.4851C191.239 11.1785 190.982 11.7651 190.468 12.2451C189.972 12.7073 189.334 12.9385 188.554 12.9385ZM190.813 14.4851V29.3651H186.269V14.4851H190.813ZM201.549 14.3251C203.285 14.3251 204.668 14.894 205.695 16.0318C206.74 17.1518 207.263 18.6985 207.263 20.6718V29.3651H202.745V21.2851C202.745 20.2896 202.488 19.5162 201.974 18.9651C201.46 18.414 200.77 18.1385 199.901 18.1385C199.033 18.1385 198.342 18.414 197.828 18.9651C197.315 19.5162 197.058 20.2896 197.058 21.2851V29.3651H192.512V14.4851H197.058V16.4585C197.518 15.8007 198.138 15.2851 198.918 14.9118C199.697 14.5207 200.574 14.3251 201.549 14.3251ZM214.461 14.2718C215.507 14.2718 216.419 14.4851 217.199 14.9118C217.996 15.3385 218.608 15.8985 219.032 16.5918V14.4851H223.578V29.3385C223.578 30.7073 223.303 31.9429 222.753 33.0451C222.222 34.1651 221.398 35.054 220.281 35.7118C219.184 36.3696 217.81 36.6985 216.162 36.6985C213.965 36.6985 212.185 36.174 210.82 35.1251C209.456 34.094 208.676 32.6896 208.481 30.9118H212.973C213.115 31.4807 213.451 31.9251 213.983 32.2451C214.514 32.5829 215.17 32.7518 215.95 32.7518C216.889 32.7518 217.633 32.4762 218.182 31.9251C218.749 31.3918 219.032 30.5296 219.032 29.3385V27.2318C218.59 27.9251 217.978 28.494 217.199 28.9385C216.419 29.3651 215.507 29.5785 214.461 29.5785C213.238 29.5785 212.131 29.2674 211.139 28.6451C210.147 28.0051 209.358 27.1074 208.774 25.9518C208.207 24.7785 207.923 23.4274 207.923 21.8985C207.923 20.3696 208.207 19.0274 208.774 17.8718C209.358 16.7162 210.147 15.8273 211.139 15.2051C212.131 14.5829 213.238 14.2718 214.461 14.2718ZM219.032 21.9251C219.032 20.7874 218.714 19.8896 218.076 19.2318C217.456 18.574 216.693 18.2451 215.79 18.2451C214.887 18.2451 214.116 18.574 213.478 19.2318C212.858 19.8718 212.548 20.7607 212.548 21.8985C212.548 23.0362 212.858 23.9429 213.478 24.6185C214.116 25.2762 214.887 25.6051 215.79 25.6051C216.693 25.6051 217.456 25.2762 218.076 24.6185C218.714 23.9607 219.032 23.0629 219.032 21.9251ZM243.528 16.6718C243.528 17.7562 243.279 18.7518 242.783 19.6585C242.287 20.5473 241.525 21.2673 240.497 21.8185C239.47 22.3696 238.194 22.6451 236.67 22.6451H233.853V29.3651H229.308V10.6451H236.67C238.159 10.6451 239.417 10.9029 240.444 11.4185C241.472 11.934 242.243 12.6451 242.756 13.5518C243.27 14.4585 243.528 15.4985 243.528 16.6718ZM236.325 19.0185C237.193 19.0185 237.839 18.814 238.265 18.4051C238.691 17.9962 238.903 17.4185 238.903 16.6718C238.903 15.9251 238.691 15.3473 238.265 14.9385C237.839 14.5296 237.193 14.3251 236.325 14.3251H233.853V19.0185H236.325ZM251.049 29.5785C249.597 29.5785 248.285 29.2674 247.116 28.6451C245.965 28.0229 245.052 27.134 244.379 25.9785C243.723 24.8229 243.395 23.4718 243.395 21.9251C243.395 20.3962 243.732 19.054 244.405 17.8985C245.079 16.7251 245.999 15.8273 247.169 15.2051C248.338 14.5829 249.65 14.2718 251.103 14.2718C252.555 14.2718 253.867 14.5829 255.036 15.2051C256.206 15.8273 257.127 16.7251 257.8 17.8985C258.474 19.054 258.811 20.3962 258.811 21.9251C258.811 23.454 258.465 24.8051 257.774 25.9785C257.1 27.134 256.17 28.0229 254.983 28.6451C253.814 29.2674 252.502 29.5785 251.049 29.5785ZM251.049 25.6318C251.918 25.6318 252.653 25.3118 253.255 24.6718C253.875 24.0318 254.186 23.1162 254.186 21.9251C254.186 20.734 253.884 19.8185 253.282 19.1785C252.698 18.5385 251.971 18.2185 251.103 18.2185C250.217 18.2185 249.481 18.5385 248.897 19.1785C248.312 19.8007 248.02 20.7162 248.02 21.9251C248.02 23.1162 248.303 24.0318 248.87 24.6718C249.455 25.3118 250.181 25.6318 251.049 25.6318ZM268.689 29.3651L264.171 23.1251V29.3651H259.627V9.63179H264.171V20.5385L268.663 14.4851H274.271L268.105 21.9518L274.325 29.3651H268.689ZM288.442 21.6851C288.442 22.1118 288.415 22.5562 288.362 23.0185H278.076C278.147 23.9429 278.439 24.654 278.953 25.1518C279.484 25.6318 280.131 25.8718 280.893 25.8718C282.027 25.8718 282.816 25.3918 283.259 24.4318H288.096C287.848 25.4096 287.396 26.2896 286.74 27.0718C286.103 27.854 285.297 28.4674 284.322 28.9118C283.348 29.3562 282.258 29.5785 281.053 29.5785C279.6 29.5785 278.306 29.2674 277.172 28.6451C276.039 28.0229 275.153 27.134 274.514 25.9785C273.877 24.8229 273.558 23.4718 273.558 21.9251C273.558 20.3785 273.868 19.0274 274.488 17.8718C275.126 16.7162 276.012 15.8273 277.146 15.2051C278.28 14.5829 279.582 14.2718 281.053 14.2718C282.488 14.2718 283.764 14.574 284.88 15.1785C285.996 15.7829 286.864 16.6451 287.484 17.7651C288.122 18.8851 288.442 20.1918 288.442 21.6851ZM283.79 20.4851C283.79 19.7029 283.525 19.0807 282.993 18.6185C282.462 18.1562 281.797 17.9251 281 17.9251C280.237 17.9251 279.591 18.1473 279.059 18.5918C278.545 19.0362 278.227 19.6673 278.102 20.4851H283.79ZM293.789 16.9651C294.32 16.1473 294.985 15.5073 295.782 15.0451C296.579 14.5651 297.465 14.3251 298.44 14.3251V19.1518H297.191C296.057 19.1518 295.206 19.4007 294.639 19.8985C294.073 20.3785 293.789 21.2318 293.789 22.4585V29.3651H289.244V14.4851H293.789V16.9651Z" fill="white"/>
</svg>
