<svg width="299" height="40" viewBox="0 0 299 40" fill="none" xmlns="http://www.w3.org/2000/svg">
<path d="M12.0565 3.96827L1.64407 10C0.736077 10.526 0.424974 11.6909 0.949206 12.602L10.9159 29.9225C11.4401 30.8335 12.6012 31.1456 13.5092 30.6197L23.9216 24.5879C24.8296 24.0619 25.1407 22.897 24.6165 21.986L14.6498 4.66546C14.1256 3.75442 12.9645 3.44228 12.0565 3.96827Z" fill="#0077CC"/>
<path d="M23.6512 6.03174H11.6279C10.5794 6.03174 9.72949 6.88453 9.72949 7.9365V27.9365C9.72949 28.9885 10.5794 29.8413 11.6279 29.8413H23.6512C24.6996 29.8413 25.5496 28.9885 25.5496 27.9365V7.9365C25.5496 6.88453 24.6996 6.03174 23.6512 6.03174Z" fill="#008FF5"/>
<path d="M32.6225 15.3968L22.21 9.3651C21.302 8.83912 20.1409 9.15126 19.6167 10.0623L9.65004 27.3828C9.12581 28.2938 9.43692 29.4588 10.3449 29.9848L20.7574 36.0165C21.6654 36.5425 22.8264 36.2303 23.3507 35.3193L33.3173 17.9988C33.8416 17.0878 33.5305 15.9228 32.6225 15.3968Z" fill="#0095FF"/>
<path d="M46.6041 29.5517C45.2398 29.5517 44.0172 29.3295 42.9364 28.8851C41.8555 28.4406 40.9873 27.7828 40.3317 26.9117C39.6939 26.0406 39.3572 24.9917 39.3218 23.7651H44.1589C44.2298 24.4584 44.469 24.9917 44.8765 25.3651C45.2841 25.7206 45.8156 25.8984 46.4712 25.8984C47.1445 25.8984 47.6761 25.7473 48.0659 25.4451C48.4557 25.1251 48.6506 24.6895 48.6506 24.1384C48.6506 23.6762 48.4911 23.294 48.1722 22.9917C47.871 22.6895 47.49 22.4406 47.0293 22.2451C46.5864 22.0495 45.9485 21.8273 45.1157 21.5784C43.9109 21.2051 42.9275 20.8317 42.1656 20.4584C41.4037 20.0851 40.7481 19.534 40.1988 18.8051C39.6496 18.0762 39.3749 17.1251 39.3749 15.9517C39.3749 14.2095 40.0039 12.8495 41.262 11.8717C42.52 10.8762 44.1589 10.3784 46.1788 10.3784C48.2342 10.3784 49.8909 10.8762 51.1489 11.8717C52.4069 12.8495 53.0802 14.2184 53.1688 15.9784H48.2519C48.2165 15.374 47.995 14.9028 47.5875 14.5651C47.1799 14.2095 46.6572 14.0317 46.0194 14.0317C45.4701 14.0317 45.0271 14.1828 44.6905 14.4851C44.3538 14.7695 44.1855 15.1873 44.1855 15.7384C44.1855 16.3428 44.469 16.814 45.036 17.1517C45.603 17.4895 46.4889 17.854 47.6938 18.2451C48.8986 18.654 49.8732 19.0451 50.6173 19.4184C51.3792 19.7917 52.0348 20.334 52.5841 21.0451C53.1334 21.7562 53.408 22.6717 53.408 23.7917C53.408 24.8584 53.1334 25.8273 52.5841 26.6984C52.0525 27.5695 51.2729 28.2628 50.2452 28.7784C49.2176 29.294 48.0039 29.5517 46.6041 29.5517ZM69.2546 14.4851V29.3651H64.7098V27.3384C64.2491 27.9962 63.6201 28.5295 62.8228 28.9384C62.0432 29.3295 61.175 29.5251 60.2182 29.5251C59.0842 29.5251 58.0831 29.2762 57.2149 28.7784C56.3467 28.2628 55.6734 27.5251 55.195 26.5651C54.7166 25.6051 54.4774 24.4762 54.4774 23.1784V14.4851H58.9956V22.5651C58.9956 23.5606 59.2525 24.334 59.7663 24.8851C60.2802 25.4362 60.9712 25.7117 61.8394 25.7117C62.7253 25.7117 63.4252 25.4362 63.939 24.8851C64.4529 24.334 64.7098 23.5606 64.7098 22.5651V14.4851H69.2546ZM75.4692 16.5917C75.9122 15.8984 76.5235 15.3384 77.3031 14.9117C78.0827 14.4851 78.9952 14.2717 80.041 14.2717C81.2631 14.2717 82.3705 14.5828 83.3632 15.2051C84.3551 15.8273 85.1351 16.7162 85.7014 17.8717C86.2868 19.0273 86.5787 20.3695 86.5787 21.8984C86.5787 23.4273 86.2868 24.7784 85.7014 25.9517C85.1351 27.1073 84.3551 28.0051 83.3632 28.6451C82.3705 29.2673 81.2631 29.5784 80.041 29.5784C79.0129 29.5784 78.1004 29.3651 77.3031 28.9384C76.5235 28.5117 75.9122 27.9606 75.4692 27.2851V36.4584H70.9244V14.4851H75.4692V16.5917ZM81.9544 21.8984C81.9544 20.7606 81.6357 19.8717 80.9973 19.2317C80.3772 18.574 79.6067 18.2451 78.6851 18.2451C77.7815 18.2451 77.0107 18.574 76.3729 19.2317C75.7527 19.8895 75.4426 20.7873 75.4426 21.9251C75.4426 23.0628 75.7527 23.9606 76.3729 24.6184C77.0107 25.2762 77.7815 25.6051 78.6851 25.6051C79.5885 25.6051 80.3598 25.2762 80.9973 24.6184C81.6357 23.9428 81.9544 23.0362 81.9544 21.8984ZM101.348 21.6851C101.348 22.1117 101.321 22.5562 101.268 23.0184H90.983C91.0542 23.9428 91.346 24.654 91.8602 25.1517C92.3917 25.6317 93.038 25.8717 93.8005 25.8717C94.934 25.8717 95.7227 25.3917 96.1656 24.4317H101.003C100.755 25.4095 100.303 26.2895 99.6476 27.0717C99.0093 27.854 98.2033 28.4673 97.2287 28.9117C96.2542 29.3562 95.1642 29.5784 93.9595 29.5784C92.5064 29.5784 91.2132 29.2673 90.0796 28.6451C88.9453 28.0228 88.0594 27.134 87.4219 25.9784C86.7835 24.8228 86.4647 23.4717 86.4647 21.9251C86.4647 20.3784 86.7748 19.0273 87.395 17.8717C88.0325 16.7162 88.9184 15.8273 90.0527 15.2051C91.187 14.5828 92.489 14.2717 93.9595 14.2717C95.3952 14.2717 96.6703 14.574 97.7872 15.1784C98.9033 15.7828 99.771 16.6451 100.391 17.7651C101.03 18.8851 101.348 20.1917 101.348 21.6851ZM96.6972 20.4851C96.6972 19.7028 96.4314 19.0806 95.8999 18.6184C95.3683 18.1562 94.7039 17.9251 93.9065 17.9251C93.1448 17.9251 92.4977 18.1473 91.9662 18.5917C91.4528 19.0362 91.1333 19.6673 91.0099 20.4851H96.6972ZM106.696 16.9651C107.228 16.1473 107.892 15.5073 108.69 15.0451C109.487 14.5651 110.373 14.3251 111.347 14.3251V19.1517H110.098C108.964 19.1517 108.114 19.4006 107.547 19.8984C106.979 20.3784 106.696 21.2317 106.696 22.4584V29.3651H102.151V14.4851H106.696V16.9651ZM130.181 16.6717C130.181 17.7562 129.934 18.7517 129.437 19.6584C128.941 20.5473 128.179 21.2673 127.152 21.8184C126.124 22.3695 124.848 22.6451 123.324 22.6451H120.507V29.3651H115.962V10.6451H123.324C124.813 10.6451 126.07 10.9028 127.099 11.4184C128.126 11.934 128.897 12.6451 129.411 13.5517C129.924 14.4584 130.181 15.4984 130.181 16.6717ZM122.979 19.0184C123.847 19.0184 124.494 18.814 124.919 18.4051C125.344 17.9962 125.557 17.4184 125.557 16.6717C125.557 15.9251 125.344 15.3473 124.919 14.9384C124.494 14.5295 123.847 14.3251 122.979 14.3251H120.507V19.0184H122.979ZM135.498 9.63173V29.3651H130.952V9.63173H135.498ZM136.293 21.8984C136.293 20.3695 136.577 19.0273 137.144 17.8717C137.728 16.7162 138.517 15.8273 139.509 15.2051C140.501 14.5828 141.608 14.2717 142.831 14.2717C143.877 14.2717 144.789 14.4851 145.569 14.9117C146.366 15.3384 146.977 15.8984 147.402 16.5917V14.4851H151.947V29.3651H147.402V27.2584C146.959 27.9517 146.339 28.5117 145.542 28.9384C144.763 29.3651 143.85 29.5784 142.804 29.5784C141.599 29.5784 140.501 29.2673 139.509 28.6451C138.517 28.0051 137.728 27.1073 137.144 25.9517C136.577 24.7784 136.293 23.4273 136.293 21.8984ZM147.402 21.9251C147.402 20.7873 147.083 19.8895 146.446 19.2317C145.826 18.574 145.063 18.2451 144.16 18.2451C143.257 18.2451 142.485 18.574 141.848 19.2317C141.228 19.8717 140.918 20.7606 140.918 21.8984C140.918 23.0362 141.228 23.9428 141.848 24.6184C142.485 25.2762 143.257 25.6051 144.16 25.6051C145.063 25.6051 145.826 25.2762 146.446 24.6184C147.083 23.9606 147.402 23.0628 147.402 21.9251ZM162.677 14.3251C164.414 14.3251 165.795 14.894 166.823 16.0317C167.869 17.1517 168.392 18.6984 168.392 20.6717V29.3651H163.873V21.2851C163.873 20.2895 163.616 19.5162 163.102 18.9651C162.589 18.414 161.897 18.1384 161.029 18.1384C160.161 18.1384 159.47 18.414 158.956 18.9651C158.442 19.5162 158.185 20.2895 158.185 21.2851V29.3651H153.641V14.4851H158.185V16.4584C158.646 15.8006 159.266 15.2851 160.046 14.9117C160.826 14.5206 161.703 14.3251 162.677 14.3251ZM178.991 14.3251C180.727 14.3251 182.11 14.894 183.137 16.0317C184.182 17.1517 184.705 18.6984 184.705 20.6717V29.3651H180.187V21.2851C180.187 20.2895 179.93 19.5162 179.417 18.9651C178.902 18.414 178.212 18.1384 177.343 18.1384C176.475 18.1384 175.784 18.414 175.27 18.9651C174.757 19.5162 174.5 20.2895 174.5 21.2851V29.3651H169.955V14.4851H174.5V16.4584C174.96 15.8006 175.58 15.2851 176.36 14.9117C177.139 14.5206 178.016 14.3251 178.991 14.3251ZM188.554 12.9384C187.757 12.9384 187.102 12.7073 186.588 12.2451C186.092 11.7651 185.843 11.1784 185.843 10.4851C185.843 9.77395 186.092 9.18729 186.588 8.72507C187.102 8.24507 187.757 8.00507 188.554 8.00507C189.334 8.00507 189.972 8.24507 190.468 8.72507C190.982 9.18729 191.239 9.77395 191.239 10.4851C191.239 11.1784 190.982 11.7651 190.468 12.2451C189.972 12.7073 189.334 12.9384 188.554 12.9384ZM190.813 14.4851V29.3651H186.269V14.4851H190.813ZM201.549 14.3251C203.285 14.3251 204.668 14.894 205.695 16.0317C206.74 17.1517 207.263 18.6984 207.263 20.6717V29.3651H202.745V21.2851C202.745 20.2895 202.488 19.5162 201.974 18.9651C201.46 18.414 200.77 18.1384 199.901 18.1384C199.033 18.1384 198.342 18.414 197.828 18.9651C197.315 19.5162 197.058 20.2895 197.058 21.2851V29.3651H192.512V14.4851H197.058V16.4584C197.518 15.8006 198.138 15.2851 198.918 14.9117C199.697 14.5206 200.574 14.3251 201.549 14.3251ZM214.461 14.2717C215.507 14.2717 216.419 14.4851 217.199 14.9117C217.996 15.3384 218.608 15.8984 219.032 16.5917V14.4851H223.578V29.3384C223.578 30.7073 223.303 31.9428 222.753 33.0451C222.222 34.1651 221.398 35.054 220.281 35.7117C219.184 36.3695 217.81 36.6984 216.162 36.6984C213.965 36.6984 212.185 36.174 210.82 35.1251C209.456 34.094 208.676 32.6895 208.481 30.9117H212.973C213.115 31.4806 213.451 31.9251 213.983 32.2451C214.514 32.5828 215.17 32.7517 215.95 32.7517C216.889 32.7517 217.633 32.4762 218.182 31.9251C218.749 31.3917 219.032 30.5295 219.032 29.3384V27.2317C218.59 27.9251 217.978 28.494 217.199 28.9384C216.419 29.3651 215.507 29.5784 214.461 29.5784C213.238 29.5784 212.131 29.2673 211.139 28.6451C210.147 28.0051 209.358 27.1073 208.774 25.9517C208.207 24.7784 207.923 23.4273 207.923 21.8984C207.923 20.3695 208.207 19.0273 208.774 17.8717C209.358 16.7162 210.147 15.8273 211.139 15.2051C212.131 14.5828 213.238 14.2717 214.461 14.2717ZM219.032 21.9251C219.032 20.7873 218.714 19.8895 218.076 19.2317C217.456 18.574 216.693 18.2451 215.79 18.2451C214.887 18.2451 214.116 18.574 213.478 19.2317C212.858 19.8717 212.548 20.7606 212.548 21.8984C212.548 23.0362 212.858 23.9428 213.478 24.6184C214.116 25.2762 214.887 25.6051 215.79 25.6051C216.693 25.6051 217.456 25.2762 218.076 24.6184C218.714 23.9606 219.032 23.0628 219.032 21.9251ZM243.528 16.6717C243.528 17.7562 243.279 18.7517 242.783 19.6584C242.287 20.5473 241.525 21.2673 240.497 21.8184C239.47 22.3695 238.194 22.6451 236.67 22.6451H233.853V29.3651H229.308V10.6451H236.67C238.159 10.6451 239.417 10.9028 240.444 11.4184C241.472 11.934 242.243 12.6451 242.756 13.5517C243.27 14.4584 243.528 15.4984 243.528 16.6717ZM236.325 19.0184C237.193 19.0184 237.839 18.814 238.265 18.4051C238.691 17.9962 238.903 17.4184 238.903 16.6717C238.903 15.9251 238.691 15.3473 238.265 14.9384C237.839 14.5295 237.193 14.3251 236.325 14.3251H233.853V19.0184H236.325ZM251.049 29.5784C249.597 29.5784 248.285 29.2673 247.116 28.6451C245.965 28.0228 245.052 27.134 244.379 25.9784C243.723 24.8228 243.395 23.4717 243.395 21.9251C243.395 20.3962 243.732 19.054 244.405 17.8984C245.079 16.7251 245.999 15.8273 247.169 15.2051C248.338 14.5828 249.65 14.2717 251.103 14.2717C252.555 14.2717 253.867 14.5828 255.036 15.2051C256.206 15.8273 257.127 16.7251 257.8 17.8984C258.474 19.054 258.811 20.3962 258.811 21.9251C258.811 23.454 258.465 24.8051 257.774 25.9784C257.1 27.134 256.17 28.0228 254.983 28.6451C253.814 29.2673 252.502 29.5784 251.049 29.5784ZM251.049 25.6317C251.918 25.6317 252.653 25.3117 253.255 24.6717C253.875 24.0317 254.186 23.1162 254.186 21.9251C254.186 20.734 253.884 19.8184 253.282 19.1784C252.698 18.5384 251.971 18.2184 251.103 18.2184C250.217 18.2184 249.481 18.5384 248.897 19.1784C248.312 19.8006 248.02 20.7162 248.02 21.9251C248.02 23.1162 248.303 24.0317 248.87 24.6717C249.455 25.3117 250.181 25.6317 251.049 25.6317ZM268.689 29.3651L264.171 23.1251V29.3651H259.627V9.63173H264.171V20.5384L268.663 14.4851H274.271L268.105 21.9517L274.325 29.3651H268.689ZM288.442 21.6851C288.442 22.1117 288.415 22.5562 288.362 23.0184H278.076C278.147 23.9428 278.439 24.654 278.953 25.1517C279.484 25.6317 280.131 25.8717 280.893 25.8717C282.027 25.8717 282.816 25.3917 283.259 24.4317H288.096C287.848 25.4095 287.396 26.2895 286.74 27.0717C286.103 27.854 285.297 28.4673 284.322 28.9117C283.348 29.3562 282.258 29.5784 281.053 29.5784C279.6 29.5784 278.306 29.2673 277.172 28.6451C276.039 28.0228 275.153 27.134 274.514 25.9784C273.877 24.8228 273.558 23.4717 273.558 21.9251C273.558 20.3784 273.868 19.0273 274.488 17.8717C275.126 16.7162 276.012 15.8273 277.146 15.2051C278.28 14.5828 279.582 14.2717 281.053 14.2717C282.488 14.2717 283.764 14.574 284.88 15.1784C285.996 15.7828 286.864 16.6451 287.484 17.7651C288.122 18.8851 288.442 20.1917 288.442 21.6851ZM283.79 20.4851C283.79 19.7028 283.525 19.0806 282.993 18.6184C282.462 18.1562 281.797 17.9251 281 17.9251C280.237 17.9251 279.591 18.1473 279.059 18.5917C278.545 19.0362 278.227 19.6673 278.102 20.4851H283.79ZM293.789 16.9651C294.32 16.1473 294.985 15.5073 295.782 15.0451C296.579 14.5651 297.465 14.3251 298.44 14.3251V19.1517H297.191C296.057 19.1517 295.206 19.4006 294.639 19.8984C294.073 20.3784 293.789 21.2317 293.789 22.4584V29.3651H289.244V14.4851H293.789V16.9651Z" fill="#0095FF"/>
</svg>
